<svg width="32" height="32" viewBox="0 0 32 32" fill="none" xmlns="http://www.w3.org/2000/svg">
<rect width="32" height="32" rx="10" fill="#474747"/>
<path d="M15.1768 11.9312H11.4746V22H8.98438V11.9312H5.33203V9.91406H15.1768V11.9312ZM25.8599 17.9741C25.7658 19.2746 25.2843 20.2983 24.4155 21.0454C23.5522 21.7925 22.4123 22.166 20.9956 22.166C19.4461 22.166 18.2259 21.6458 17.335 20.6055C16.4495 19.5596 16.0068 18.1263 16.0068 16.3057V15.5669C16.0068 14.4048 16.2116 13.381 16.6211 12.4956C17.0306 11.6102 17.6144 10.9323 18.3726 10.4619C19.1362 9.986 20.0216 9.74805 21.0288 9.74805C22.4233 9.74805 23.5467 10.1216 24.3989 10.8687C25.2511 11.6157 25.7437 12.6644 25.8765 14.0146H23.3862C23.3254 13.2344 23.1068 12.6699 22.7305 12.3213C22.3597 11.9671 21.7925 11.79 21.0288 11.79C20.1987 11.79 19.5762 12.0889 19.1611 12.6865C18.7516 13.2786 18.5413 14.2 18.5303 15.4507V16.3638C18.5303 17.6698 18.7267 18.6243 19.1196 19.2275C19.5181 19.8307 20.1434 20.1323 20.9956 20.1323C21.7648 20.1323 22.3376 19.958 22.7139 19.6094C23.0957 19.2552 23.3143 18.7101 23.3696 17.9741H25.8599Z" fill="#FAFF00"/>
</svg>
