<svg width="110" height="110" viewBox="0 0 110 110" fill="none" xmlns="http://www.w3.org/2000/svg">
<path d="M43.9999 2.00005C43.9999 2.60005 44.4999 3.00005 45.0999 3.00005C46.5999 3.00005 45.1999 4.80005 42.6999 6.20005C40.6999 7.20005 40.5999 7.20005 41.8999 5.60005C42.6999 4.70005 42.9999 3.70005 42.6999 3.40005C41.7999 2.50005 30.9999 5.90004 30.9999 7.10004C30.9999 7.70004 31.3999 7.90004 31.7999 7.60004C32.1999 7.40004 33.1999 7.50004 33.9999 8.10004C35.0999 8.70004 34.6999 9.00004 32.3999 9.00004C30.1999 9.00004 28.9999 9.60004 28.1999 11.2C27.5999 12.5 27.0999 12.9 27.0999 12.2C26.9999 11.2 26.4999 11.2 24.9999 12C23.8999 12.6 22.4999 12.8 21.9999 12.5C21.3999 12.2 20.9999 12.3 20.9999 12.9C20.9999 13.4 21.6999 14 22.4999 14.2C23.3999 14.4 23.6999 15 23.0999 15.8C22.3999 16.9 21.9999 16.9 20.7999 15.6C19.3999 14.2 18.9999 14.3 17.4999 16C16.4999 17.1 15.9999 18.3 16.2999 18.6C16.6999 19 17.1999 18.5 17.5999 17.6C18.3999 15.6 19.6999 15.5 19.6999 17.5C19.6999 18.3 19.2999 18.7 18.7999 18.4C18.3999 18.1 17.6999 18.6 17.3999 19.4C17.0999 20.3 16.3999 21 15.7999 21C15.2999 21 15.0999 20.6 15.4999 20.1C15.7999 19.6 15.5999 18.9 14.9999 18.5C14.4999 18.2 13.9999 18.6 13.9999 19.4C13.9999 20.2 14.3999 21.2 14.9999 21.5C16.4999 22.4 16.1999 24 14.4999 24C13.6999 24 12.9999 24.5 12.9999 25.1C12.9999 25.6 13.5999 25.8 14.2999 25.4C14.9999 24.9 14.9999 25.3 14.0999 26.4C12.6999 28 12.5999 28 11.5999 26.1C10.5999 24.2 10.2999 24.4 8.1999 28.1C6.8999 30.4 6.0999 32.4 6.3999 32.8C7.1999 33.6 8.0999 32.5 8.3999 30.4C8.5999 29.4 9.2999 28.4 10.0999 28.2C10.8999 28 11.0999 28.2 10.4999 28.7C9.9999 29.1 9.3999 30.2 9.1999 31C8.6999 33.1 6.8999 35.1 5.9999 34.5C5.4999 34.2 5.3999 35 5.6999 36.2C6.0999 38.1 5.9999 38.2 5.0999 37C3.4999 34.8 3.6999 37.5 5.2999 40.1C6.2999 41.8 6.1999 42.3 3.9999 44C2.5999 45.1 1.8999 46 2.3999 46C2.8999 46 2.6999 46.7 1.9999 47.5C0.899902 48.8 0.999902 48.9 2.2999 48.4C3.4999 48 3.7999 48.3 3.4999 49.9C3.2999 51.1 3.5999 52 4.0999 52C4.6999 52 4.6999 52.7 3.9999 53.9C3.2999 55.3 3.3999 56 4.2999 56.3C5.1999 56.7 5.1999 56.9 4.1999 56.9C3.4999 57 3.1999 57.5 3.4999 58.1C3.8999 58.6 3.3999 60 2.3999 61.1C0.999902 62.7 0.899902 63.3 1.9999 64.3C2.9999 65.3 3.1999 65.2 2.6999 63.8C2.3999 62.8 2.4999 61.8 2.8999 61.5C3.7999 61 5.2999 67 4.4999 67.8C4.1999 68.1 3.9999 67.7 3.9999 66.9C3.9999 65.7 3.7999 65.7 3.0999 66.9C2.5999 67.7 2.5999 69 2.9999 69.9C3.4999 70.8 4.0999 72.3 4.3999 73.2C4.6999 74.3 5.4999 74.7 6.4999 74.4C8.1999 73.7 8.3999 74.8 7.0999 77C5.6999 79 6.8999 80.3 8.7999 78.8C10.0999 77.7 10.1999 77.7 9.7999 79C9.5999 79.8 9.8999 81.1 10.6999 81.8C11.3999 82.5 11.9999 83.9 11.9999 84.8C11.8999 86 11.4999 85.8 10.4999 84C9.5999 82.4 9.0999 82 8.9999 83.1C8.9999 83.9 10.0999 85.7 11.4999 87C12.8999 88.3 13.9999 89.8 13.9999 90.3C13.9999 91.3 16.9999 93.9 18.1999 94C18.5999 94 18.6999 93.3 18.3999 92.5C17.9999 91.7 18.2999 91 18.7999 91C19.3999 91 19.6999 92.1 19.3999 93.4C19.0999 95.3 19.6999 96.4 22.1999 98.2C23.9999 99.4 26.2999 100.3 27.1999 100.2C28.3999 100 28.9999 100.5 28.9999 101.6C28.9999 103.3 29.0999 103.3 30.2999 101.6C31.5999 99.8 31.6999 99.8 32.3999 101.5C32.8999 102.8 33.2999 103 34.3999 102.1C35.4999 101.2 35.5999 101.5 35.1999 103.5C34.7999 105.8 34.9999 106 37.0999 105.2C39.7999 104.2 41.9999 104.6 41.9999 106.2C41.9999 106.8 41.1999 106.7 40.2999 105.9C38.6999 104.6 38.5999 104.7 39.7999 106.2C41.1999 108 46.4999 107.8 50.3999 105.8C52.3999 104.8 52.3999 104.8 50.7999 106.6C49.1999 108.5 49.1999 108.6 51.0999 108.7C52.1999 108.8 52.7999 108.4 52.3999 107.8C51.9999 107.2 52.4999 107.2 53.7999 107.9C56.2999 109.3 58.0999 109.3 55.9999 108C54.6999 107.2 54.6999 107 56.2999 106.9C57.1999 106.8 58.5999 106.7 59.2999 106.6C59.8999 106.5 60.9999 106.7 61.4999 107.1C63.1999 108.2 65.9999 107.7 65.9999 106.3C65.9999 105.5 65.4999 105.2 64.7999 105.6C64.0999 106 63.9999 105.9 64.3999 105.1C65.3999 103.6 66.9999 104.7 66.9999 106.8C66.9999 107.8 67.2999 108.1 67.7999 107.5C68.1999 106.9 69.3999 106.4 70.4999 106.4C71.7999 106.4 72.3999 105.8 72.2999 104.6C72.1999 103.3 72.4999 103.1 73.2999 103.9C74.8999 105.5 77.9999 105.2 77.9999 103.5C77.9999 102.7 78.4999 101.9 78.9999 101.9C79.5999 101.8 80.4999 101.6 80.9999 101.5C81.5999 101.4 82.4999 101.2 82.9999 101.1C83.5999 101.1 83.9999 100.2 83.9999 99.2C83.9999 97.9 84.1999 97.8 84.8999 98.8C85.9999 100.6 88.1999 97.9 88.3999 94.6C88.3999 93.3 88.6999 92.2 88.9999 92.2C89.2999 92.2 89.7999 92.1 90.2999 92C90.6999 91.9 91.2999 91.7 91.7999 91.5C94.6999 90.7 95.7999 89.7 95.2999 88.2C94.7999 87.1 95.0999 86.8 96.1999 87.2C96.9999 87.6 97.6999 87.3 97.6999 86.4C97.6999 85.7 97.1999 85.3 96.5999 85.6C95.9999 85.9 96.2999 85.5 97.3999 84.6C98.3999 83.8 98.9999 82.8 98.6999 82.3C98.3999 81.9 98.8999 80.8 99.7999 80C101.2 78.7 101.3 78.8 100.7 80.3C100.4 81.2 100.5 82 101 82C101.6 82 102 80.9 102 79.6C102 78.3 102.8 76.9 103.7 76.6C105.2 76 105.2 75.8 104 75C102.8 74.2 102.9 74 104.5 74C106.3 73.9 106.3 73.8 104.3 73C103 72.5 102 71.8 102 71.6C102 71.3 102.6 71.3 103.4 71.6C104.8 72.1 106.3 70.6 106.6 68.2C106.7 67.6 106.4 67.2 105.9 67.6C105.4 67.9 105.2 68.5 105.5 69C105.8 69.5 105.6 70.2 105 70.5C104.3 70.9 104.1 70.2 104.3 68.3C104.6 66.8 105.2 65.6 105.8 65.7C106.5 65.9 106.7 64.7 106.3 62.5C105.8 59.5 106 59 107.6 59C109.2 59 109.3 58.8 108 58C107.1 57.4 107 57 107.7 57C108.5 57 108.7 55.5 108.4 52.2C108.1 49.6 107.8 46.2 107.8 44.7C107.6 42.2 107.4 42.1 106.4 43.5C105.4 44.9 105.2 44.9 104.7 43.6C104.3 42.7 104.7 41.4 105.5 40.6C106.8 39.4 106.7 39.1 105.4 38.6C104.3 38.2 104 37.2 104.3 35.9C104.7 34.5 104.4 34 103.6 34.3C102.1 34.9 99.5999 31.4 100.9 30.6C101.4 30.3 102 30.7 102.4 31.5C102.7 32.3 103.5 33 104.2 33C104.9 33 103.8 31.4 101.6 29.4C99.4999 27.5 98.0999 25.6 98.4999 25.2C98.8999 24.8 99.7999 25.4 100.6 26.4C101.4 27.5 102 28 102 27.4C102 25.4 100.3 24 97.7999 23.8C96.2999 23.7 95.1999 23.1 95.2999 22.6C95.3999 22.1 94.4999 21.1 93.1999 20.5C91.2999 19.5 91.1999 19.1 92.3999 18.7C93.2999 18.3 93.9999 18.5 93.9999 19C93.9999 19.5 94.8999 20.4 95.9999 21C98.5999 22.4 98.4999 21.9 95.5999 18.7C93.9999 17 92.9999 16.5 92.6999 17.3C92.2999 18.1 92.0999 18.1 92.0999 17.3C91.9999 16.7 91.0999 16.4 89.9999 16.7C88.7999 17 87.7999 16.6 87.3999 15.6C87.0999 14.7 86.2999 14.3 85.5999 14.7C84.9999 15 85.2999 14.4 86.2999 13.3C87.8999 11.4 87.8999 11.2 86.4999 10.6C84.3999 9.80004 83.8999 9.80004 84.2999 10.7C84.3999 11.2 83.9999 11.5 83.4999 11.5C82.8999 11.5 82.5999 11.1 82.7999 10.6C82.9999 10.1 82.3999 10.3 81.4999 11C80.6999 11.7 79.6999 12 79.2999 11.6C78.9999 11.3 79.1999 11 79.7999 11C80.4999 11 80.9999 10.5 80.9999 9.80004C80.9999 9.20004 80.6999 9.00004 80.3999 9.30004C79.9999 9.60004 78.8999 9.50004 77.8999 9.00004C76.8999 8.40004 74.9999 7.90004 73.5999 7.80004C72.2999 7.70004 71.3999 7.20004 71.5999 6.80004C71.8999 6.40004 71.5999 6.00005 71.0999 6.00005C70.4999 6.00005 68.9999 4.90005 67.7999 3.50005C65.1999 0.400047 63.3999 0.300047 62.4999 3.10005C61.9999 4.70005 61.4999 4.90005 60.6999 4.10005C59.7999 3.20005 59.8999 2.70005 60.9999 2.00005C61.7999 1.50005 61.9999 1.00005 61.3999 1.00005C60.7999 1.00005 59.6999 1.70005 58.9999 2.50005C58.0999 3.60005 56.6999 3.80005 53.5999 3.30005C51.3999 3.00005 49.2999 2.40005 48.9999 2.10005C48.0999 1.10005 43.9999 1.00005 43.9999 2.00005ZM71.4999 13.3C79.8999 17.2 82.2999 20.3 81.4999 25.9C80.9999 28.9 81.1999 30 81.8999 29.5C82.4999 29.2 83.2999 27.1 83.5999 25L84.2999 21L87.6999 24C90.7999 26.8 93.7999 28.1 92.5999 26.2C92.3999 25.8 92.5999 24.8 93.1999 24C93.9999 22.7 94.0999 22.8 93.6999 24.1C93.0999 26.1 95.6999 30.3 97.0999 29.5C97.5999 29.2 97.6999 29.6 97.3999 30.5C96.9999 31.3 97.1999 32.6 97.7999 33.3C99.8999 35.9 102 45.7 102 53.1C102 75.2 86.8999 94.4 65.8999 99C58.0999 100.7 44.8999 99.8 37.7999 97.1C26.0999 92.6 15.3999 81.9 10.8999 70.3C7.7999 62.1 7.1999 48.3 9.5999 40.4C10.5999 37.2 11.3999 34 11.4999 33.5C11.4999 32.9 12.4999 31.4 13.6999 30C14.9999 28.6 15.9999 27.1 15.9999 26.7C15.9999 26.2 16.6999 26 17.4999 26.4C18.2999 26.7 18.9999 26.5 18.9999 26C18.9999 25.4 19.4999 25 20.1999 25C20.7999 25 22.3999 24 23.6999 22.8L25.9999 20.7V23.8C25.9999 25.5 26.4999 27.2 27.1999 27.6C27.7999 28 27.9999 27.9 27.5999 27.2C27.2999 26.6 27.3999 25.9 27.9999 25.5C28.4999 25.2 28.9999 23.4 28.9999 21.5C28.9999 17.7 31.9999 15.3 41.1999 11.9C49.1999 8.90004 63.3999 9.60004 71.4999 13.3Z" fill="#FFFDFD"/>
<path d="M65.0998 27.1C61.5998 28.5 59.9998 31 60.4998 34.5C60.6998 36.1 60.8998 37.9 60.8998 38.4C60.9998 38.9 61.2998 39.1 61.5998 38.7C61.8998 38.4 63.7998 39 65.7998 40C68.9998 41.7 69.5998 41.8 70.9998 40.5C71.8998 39.7 73.2998 39 74.0998 39C76.0998 38.9 71.1998 35 69.1998 35C67.6998 35 67.7998 34.8 69.2998 33.3C70.6998 31.9 71.4998 31.8 73.8998 32.7C75.5998 33.3 77.2998 33.4 78.0998 32.9C79.1998 32.2 78.8998 31.4 76.6998 29.5C75.1998 28.1 73.0998 27 71.9998 27C70.9998 27 69.5998 26.8 68.7998 26.6C68.0998 26.3 66.3998 26.6 65.0998 27.1Z" fill="#FFFDFD"/>
<path d="M68 68.8999C68 69.9999 67.6 71.0999 67.1 71.3999C66.6 71.7999 66.4 70.9999 66.7 69.7999C67.3 67.4999 67.3 67.4999 64.5 69.9999C62.9 71.3999 62 71.8999 62.4 71.1999C62.8 70.5999 62.7 69.9999 62.2 69.9999C60.8 69.9999 58.7 72.7999 59.4 73.7999C60.7 75.8999 56 78.1999 49.5 78.7999C44.8 79.0999 43 79.5999 43.4 80.4999C43.6 81.1999 43.3 82.2999 42.7 82.8999C41.4 84.1999 33.6 84.3999 31.2 83.0999C30.3 82.6999 28 81.9999 26.2 81.6999L23 80.9999L26.2 84.5999C30.9 89.7999 42 94.8999 50.2 95.6999C61.1 96.6999 73.5 93.2999 80.8 87.3999C83.4 85.1999 85.6 77.9999 83.6 77.9999C81.6 77.9999 80.9 79.1999 82.2 80.6999C83.7 82.5999 81.2 82.0999 79 80.0999C77.9 78.9999 77.8 78.5999 78.8 78.1999C79.4 77.9999 80 77.3999 80 76.8999C80 76.2999 79.6 76.0999 79.1 76.3999C78.6 76.6999 78 76.1999 77.8 75.1999C77.5 74.1999 75.6 72.5999 73.6 71.5999C71.6 70.6999 70 69.2999 70 68.4999C70 67.6999 69.6 66.9999 69 66.9999C68.5 66.9999 68 67.8999 68 68.8999Z" fill="#FFFDFD"/>
</svg>
